<svg width="28" height="29" viewBox="0 0 28 29" fill="none" xmlns="http://www.w3.org/2000/svg">
<g clip-path="url(#clip0)">
<path d="M23.259 19.8906H25.0494L27.2311 26.156H0.769531" stroke="black" stroke-linecap="round" stroke-linejoin="round"/>
<path d="M12.6751 7.94074C12.6751 10.5789 10.947 12.5368 9.01675 12.5368C7.08653 12.5368 5.3584 10.5789 5.3584 7.94074C5.3584 5.30259 7.08653 3.34473 9.01675 3.34473C10.947 3.34473 12.6751 5.30259 12.6751 7.94074Z" stroke="black"/>
<path d="M14.299 13.2595C14.5394 13.3954 14.8444 13.3108 14.9803 13.0704C15.1162 12.83 15.0315 12.5249 14.7912 12.389L14.299 13.2595ZM11.9844 10.8021C11.744 10.6661 11.4389 10.7508 11.303 10.9912C11.1671 11.2316 11.2518 11.5366 11.4922 11.6726L11.9844 10.8021ZM14.7912 12.389L11.9844 10.8021L11.4922 11.6726L14.299 13.2595L14.7912 12.389Z" fill="black"/>
<path d="M6.42402 11.2998C4.95322 12.1088 1.81651 13.2933 1.73323 13.4609C1.62913 13.6702 1.30859 14.4799 1.30859 17.5281C1.30859 18.5515 1.30859 19.0159 1.30859 20.0083C1.30859 20.7744 1.92438 21.815 3.03135 21.8359C4.13832 21.8567 8.71415 21.8446 10.8637 21.8359L16.0853 12.907H25.954H26.6589L22.0117 21.8359H16.8424" stroke="black" stroke-linecap="round" stroke-linejoin="round"/>
<path d="M14.2122 9V5.6H15.2472C15.5005 5.6 15.7005 5.63667 15.8472 5.71C15.9972 5.78333 16.1039 5.88667 16.1672 6.02C16.2339 6.15333 16.2672 6.31 16.2672 6.49V6.63C16.2672 6.89333 16.1539 7.095 15.9272 7.235C16.0872 7.29833 16.2089 7.39 16.2922 7.51C16.3755 7.63 16.4172 7.77333 16.4172 7.94V8.08C16.4172 8.26333 16.3839 8.425 16.3172 8.565C16.2505 8.70167 16.1405 8.80833 15.9872 8.885C15.8339 8.96167 15.6289 9 15.3722 9H14.2122ZM15.2472 6.15H14.8122V7H15.2472C15.3805 7 15.4805 6.97 15.5472 6.91C15.6172 6.84667 15.6522 6.76167 15.6522 6.655V6.49C15.6522 6.38333 15.6172 6.3 15.5472 6.24C15.4805 6.18 15.3805 6.15 15.2472 6.15ZM15.3722 7.55H14.8122V8.45H15.3722C15.5122 8.45 15.6189 8.41667 15.6922 8.35C15.7655 8.28333 15.8022 8.19333 15.8022 8.08V7.915C15.8022 7.80167 15.7655 7.71333 15.6922 7.65C15.6189 7.58333 15.5122 7.55 15.3722 7.55ZM19.347 8.425V9H17.387V5.6H17.987V8.425H19.347ZM22.5518 6.94V7.655C22.5518 8.08833 22.4434 8.43 22.2268 8.68C22.0101 8.92667 21.6934 9.05 21.2768 9.05C20.8568 9.05 20.5384 8.92667 20.3218 8.68C20.1084 8.43 20.0018 8.08833 20.0018 7.655V6.94C20.0018 6.50667 20.1084 6.16667 20.3218 5.92C20.5384 5.67333 20.8568 5.55 21.2768 5.55C21.6934 5.55 22.0101 5.67333 22.2268 5.92C22.4434 6.16667 22.5518 6.50667 22.5518 6.94ZM21.9368 6.94C21.9368 6.66667 21.8834 6.46167 21.7768 6.325C21.6701 6.185 21.5034 6.115 21.2768 6.115C21.0501 6.115 20.8834 6.185 20.7768 6.325C20.6701 6.46167 20.6168 6.66667 20.6168 6.94V7.655C20.6168 7.92833 20.6701 8.135 20.7768 8.275C20.8834 8.415 21.0501 8.485 21.2768 8.485C21.5034 8.485 21.6701 8.415 21.7768 8.275C21.8834 8.135 21.9368 7.92833 21.9368 7.655V6.94ZM25.845 8.78C25.7617 8.83 25.6233 8.88833 25.43 8.955C25.24 9.01833 25.0167 9.05 24.76 9.05C24.47 9.05 24.2267 8.99 24.03 8.87C23.8367 8.75 23.69 8.585 23.59 8.375C23.49 8.165 23.44 7.925 23.44 7.655V6.94C23.44 6.66333 23.49 6.42167 23.59 6.215C23.69 6.005 23.8383 5.84167 24.035 5.725C24.235 5.60833 24.485 5.55 24.785 5.55C24.9317 5.55 25.0833 5.56667 25.24 5.6C25.3967 5.63 25.5683 5.68667 25.755 5.77L25.57 6.295C25.4067 6.23167 25.265 6.18667 25.145 6.16C25.0283 6.13 24.9117 6.115 24.795 6.115C24.535 6.115 24.3467 6.19 24.23 6.34C24.1133 6.48667 24.055 6.68667 24.055 6.94V7.655C24.055 7.895 24.1133 8.09167 24.23 8.245C24.35 8.39833 24.5367 8.475 24.79 8.475C24.8667 8.475 24.95 8.46833 25.04 8.455C25.13 8.44167 25.2167 8.42333 25.3 8.4V7.655H24.75V7.13H25.845V8.78Z" fill="black"/>
</g>
<defs>
<clipPath id="clip0">
<rect width="28" height="28" fill="white" transform="translate(0 0.5)"/>
</clipPath>
</defs>
</svg>
