<svg width="24" height="24" viewBox="0 0 24 24" fill="none" xmlns="http://www.w3.org/2000/svg">
<path d="M18.5 9.00004H15.06C18.64 7.73004 18.82 5.77004 18.77 5.06004C18.6986 4.34907 18.3672 3.6895 17.8394 3.20783C17.3116 2.72616 16.6245 2.45631 15.91 2.45004C14.82 2.45004 12.91 3.18004 12.03 7.00004C11.16 3.18004 9.24 2.46004 8.15 2.45004C7.42451 2.4391 6.72145 2.70146 6.18048 3.185C5.63951 3.66853 5.30022 4.33787 5.23 5.06004C5.18 5.77004 5.36 7.73004 8.94 9.00004H5.5C4.83696 9.00004 4.20107 9.26343 3.73223 9.73227C3.26339 10.2011 3 10.837 3 11.5V18.5C3 19.1631 3.26339 19.799 3.73223 20.2678C4.20107 20.7366 4.83696 21 5.5 21H18.5C19.163 21 19.7989 20.7366 20.2678 20.2678C20.7366 19.799 21 19.1631 21 18.5V11.5C21 10.837 20.7366 10.2011 20.2678 9.73227C19.7989 9.26343 19.163 9.00004 18.5 9.00004ZM15.88 3.45004C16.3464 3.45532 16.7944 3.63288 17.1377 3.94856C17.4811 4.26423 17.6956 4.69573 17.74 5.16004C17.84 6.45004 16.44 8.04004 12.54 8.77004C13.05 4.87004 14.58 3.46004 15.88 3.45004ZM6.23 5.16004C6.27439 4.69573 6.4889 4.26423 6.83227 3.94856C7.17564 3.63288 7.62361 3.45532 8.09 3.45004C9.39 3.45004 10.92 4.87004 11.4 8.77004C7.53 8.00004 6.13 6.45004 6.23 5.16004ZM20 18.5C20 18.8979 19.842 19.2794 19.5607 19.5607C19.2794 19.842 18.8978 20 18.5 20H5.5C5.10218 20 4.72064 19.842 4.43934 19.5607C4.15804 19.2794 4 18.8979 4 18.5V16H20V18.5ZM20 15H4V13H20V15ZM4 12V11.5C4 11.1022 4.15804 10.7207 4.43934 10.4394C4.72064 10.1581 5.10218 10 5.5 10H18.5C18.8978 10 19.2794 10.1581 19.5607 10.4394C19.842 10.7207 20 11.1022 20 11.5V12H4Z" fill="#212121"/>
</svg>
