<svg width="28" height="28" viewBox="0 0 28 28" fill="none" xmlns="http://www.w3.org/2000/svg">
<path d="M13.9997 9.58606C14.1574 9.58606 14.3115 9.53929 14.4427 9.45167C14.5738 9.36405 14.676 9.23951 14.7364 9.09379C14.7967 8.94809 14.8125 8.78775 14.7818 8.63308C14.751 8.47839 14.6751 8.3363 14.5635 8.22478C14.452 8.11326 14.3099 8.03732 14.1552 8.00654C14.0006 7.97578 13.8402 7.99157 13.6945 8.05193C13.5488 8.11228 13.4243 8.21449 13.3367 8.34562C13.249 8.47676 13.2023 8.63093 13.2023 8.78864C13.2023 9.00013 13.2863 9.20296 13.4358 9.3525C13.5854 9.50205 13.7882 9.58606 13.9997 9.58606ZM13.9997 2.33301C11.6922 2.33301 9.4366 3.01725 7.51803 4.29919C5.59945 5.58115 4.10411 7.40322 3.22109 9.53504C2.33806 11.6668 2.10703 14.0126 2.55718 16.2757C3.00734 18.5388 4.11849 20.6176 5.75011 22.2493C7.38171 23.8809 9.46051 24.992 11.7236 25.4422C13.9867 25.8923 16.3325 25.6613 18.4643 24.7783C20.5961 23.8952 22.4182 22.3999 23.7002 20.4813C24.9821 18.5627 25.6663 16.3071 25.6663 13.9997C25.6663 12.4676 25.3645 10.9505 24.7783 9.53504C24.192 8.11957 23.3327 6.83345 22.2493 5.75009C21.1659 4.66675 19.8798 3.80738 18.4643 3.22107C17.0489 2.63478 15.5317 2.33301 13.9997 2.33301ZM13.9997 24.4997C11.923 24.4997 9.8929 23.8839 8.16619 22.7301C6.43948 21.5764 5.09367 19.9365 4.29895 18.0179C3.50423 16.0992 3.29629 13.988 3.70144 11.9512C4.10658 9.91443 5.10661 8.0435 6.57506 6.57505C8.04352 5.10661 9.91443 4.10657 11.9512 3.70143C13.988 3.29629 16.0992 3.50422 18.0179 4.29893C19.9365 5.09366 21.5764 6.43948 22.7301 8.16619C23.8839 9.8929 24.4997 11.923 24.4997 13.9997C24.4966 16.7835 23.3894 19.4524 21.4208 21.4208C19.4524 23.3894 16.7835 24.4966 13.9997 24.4997ZM14.583 12.2497H11.083V13.358H13.4163V18.7247H11.083V19.833H16.9163V18.7247H14.583V12.2497Z" fill="black"/>
</svg>
