<?xml version="1.0" encoding="utf-8"?>
<!-- Generator: Adobe Illustrator 22.0.1, SVG Export Plug-In . SVG Version: 6.00 Build 0)  -->
<svg version="1.1" id="Слой_1" xmlns="http://www.w3.org/2000/svg" xmlns:xlink="http://www.w3.org/1999/xlink" x="0px" y="0px"
	 viewBox="0 0 23 23" style="enable-background:new 0 0 23 23;" xml:space="preserve">
<style type="text/css">
	.st0{fill:#212121;}
</style>
<g>
	<path class="st0" d="M14.6,0.3l-0.1-0.1C14.3,0.1,14,0,13.7,0c-0.3,0-0.5,0.1-0.7,0.3l-0.1,0.1c-0.2,0.2-0.3,0.5-0.2,0.8
		c0,0.3,0.1,0.5,0.3,0.7l1.5,1.5H8.1l-0.3,0C5.7,3.5,3.7,4.4,2.3,5.9C0.8,7.4,0,9.4,0,11.5c0,1.7,0.5,3.2,1.4,4.5
		c0.2,0.2,0.4,0.4,0.7,0.5c0.3,0.1,0.6,0,0.9-0.2c0.2-0.2,0.4-0.4,0.5-0.7c0-0.3,0-0.6-0.2-0.9l-0.2-0.3c-0.5-0.9-0.8-1.9-0.8-2.9
		c0-1,0.3-2,0.8-2.9C3.6,7.8,4.3,7,5.2,6.5C6,6,7,5.8,8.1,5.8h6.4L13,7.2l-0.1,0.1c-0.2,0.2-0.3,0.5-0.3,0.8s0.2,0.6,0.4,0.8
		c0.2,0.2,0.5,0.3,0.8,0.3s0.6-0.1,0.8-0.3l3.5-3.5l0.1-0.1c0.2-0.2,0.3-0.5,0.2-0.8c0-0.3-0.1-0.5-0.3-0.7L14.6,0.3z M21.6,7
		c-0.1-0.2-0.4-0.3-0.6-0.4c-0.2-0.1-0.5-0.1-0.7,0S19.9,6.8,19.8,7c-0.1,0.2-0.2,0.4-0.2,0.7c0,0.2,0.1,0.5,0.2,0.6
		c0.6,0.9,0.9,1.9,0.9,2.9s-0.2,2.1-0.7,3c-0.5,0.9-1.2,1.7-2.1,2.2C17,17,16,17.2,15,17.2H8.5l1.5-1.5l0.1-0.1
		c0.2-0.2,0.2-0.5,0.2-0.7c0-0.3-0.1-0.5-0.2-0.7L10,14.1L9.9,14c-0.2-0.2-0.5-0.2-0.7-0.2c-0.3,0-0.5,0.1-0.7,0.2l-0.1,0.1
		l-3.5,3.5l-0.1,0.1c-0.2,0.2-0.2,0.5-0.2,0.7c0,0.3,0.1,0.5,0.2,0.7l0.1,0.1l3.5,3.5l0.1,0.1C8.7,22.9,9,23,9.3,23
		c0.3,0,0.5-0.1,0.7-0.3c0.2-0.2,0.3-0.5,0.3-0.7s-0.1-0.6-0.2-0.8L10,21l-1.5-1.5H15l0.3,0c1.4,0,2.8-0.5,4.1-1.3
		c1.2-0.8,2.2-1.9,2.8-3.1c0.7-1.3,0.9-2.7,0.9-4.2C22.9,9.5,22.4,8.2,21.6,7L21.6,7L21.6,7z"/>
	<polygon class="st0" points="21.2,23 0.3,1.7 2.2,0.1 23,21.2 	"/>
</g>
</svg>
