<svg width="32" height="32" viewBox="0 0 32 32" fill="none" xmlns="http://www.w3.org/2000/svg">
<path d="M9.73333 9.7091C10.5449 8.89636 11.5088 8.25158 12.5698 7.81166C13.6308 7.37174 14.7681 7.1453 15.9167 7.1453C17.0652 7.1453 18.2026 7.37174 19.2636 7.81166C20.3246 8.25158 21.2884 8.89636 22.1 9.7091L23.8267 11.4241H19.8483V12.5908H25.8217V6.6291H24.655V10.5958L22.9167 8.89244C21.5299 7.51045 19.7651 6.56987 17.8446 6.18923C15.9242 5.80859 13.934 6.00493 12.125 6.7535C10.3159 7.50208 8.76894 8.76938 7.67896 10.3957C6.58898 12.0221 6.00478 13.9346 6 15.8924H7.16667C7.16319 14.7431 7.38832 13.6045 7.82896 12.543C8.2696 11.4814 8.91694 10.5181 9.73333 9.7091V9.7091ZM24.6667 15.8924C24.6651 17.6219 24.1511 19.3121 23.1896 20.7497C22.228 22.1872 20.862 23.3075 19.2641 23.9691C17.6662 24.6308 15.9081 24.804 14.2117 24.467C12.5154 24.1301 10.957 23.2979 9.73333 22.0758L8.00667 20.3608H11.985V19.1941H6.01167V25.1558H7.17833V21.1891L8.91667 22.8924C10.3034 24.2744 12.0682 25.215 13.9887 25.5956C15.9092 25.9763 17.8993 25.7799 19.7084 25.0314C21.5174 24.2828 23.0644 23.0155 24.1544 21.3892C25.2444 19.7628 25.8286 17.8502 25.8333 15.8924H24.6667Z" fill="black"/>
<path d="M18.52 20H14.4V19.05C14.4 18.57 14.4633 18.17 14.59 17.85C14.7167 17.5233 14.8867 17.2567 15.1 17.05C15.3133 16.8367 15.5467 16.6667 15.8 16.54L16.48 16.2C16.74 16.0667 16.95 15.9267 17.11 15.78C17.2767 15.6267 17.36 15.43 17.36 15.19V15.01C17.36 14.7633 17.2733 14.57 17.1 14.43C16.9333 14.2833 16.6633 14.21 16.29 14.21C16.0633 14.21 15.8333 14.2433 15.6 14.31C15.3733 14.3767 15.0967 14.47 14.77 14.59L14.4 13.56C14.7733 13.3933 15.1133 13.2767 15.42 13.21C15.7333 13.1367 16.0367 13.1 16.33 13.1C16.87 13.1 17.3 13.1867 17.62 13.36C17.9467 13.5333 18.18 13.7667 18.32 14.06C18.4667 14.3467 18.54 14.6633 18.54 15.01V15.19C18.54 15.55 18.4667 15.8567 18.32 16.11C18.18 16.3633 17.9933 16.5767 17.76 16.75C17.5267 16.9233 17.2733 17.0767 17 17.21L16.32 17.55C16.0733 17.67 15.89 17.8367 15.77 18.05C15.6567 18.2633 15.5933 18.5367 15.58 18.87H18.52V20Z" fill="black"/>
</svg>
