<svg width="24" height="24" viewBox="0 0 24 24" fill="none" xmlns="http://www.w3.org/2000/svg">
<path d="M8.63 8.16998H5.22L6.7 6.69998C7.74887 5.65242 9.08465 4.93917 10.5386 4.65033C11.9926 4.36149 13.4996 4.51 14.8692 5.07711C16.2389 5.64423 17.4097 6.6045 18.2339 7.83666C19.0581 9.06882 19.4987 10.5176 19.5 12H20.5C20.4959 10.3219 19.9952 8.68251 19.0609 7.28851C18.1266 5.89451 16.8006 4.80825 15.25 4.16661C13.6994 3.52498 11.9936 3.35669 10.3475 3.68295C8.70135 4.00921 7.18866 4.81542 6 5.99998L4.51 7.45998V4.05998H3.51V9.16998H8.63V8.16998ZM15.37 15.83H18.78L17.3 17.3C16.2511 18.3475 14.9153 19.0608 13.4614 19.3496C12.0074 19.6385 10.5004 19.49 9.13076 18.9229C7.76113 18.3557 6.59028 17.3955 5.76608 16.1633C4.94188 14.9312 4.5013 13.4824 4.5 12H3.5C3.5041 13.6781 4.00484 15.3175 4.93911 16.7115C5.87338 18.1055 7.19937 19.1917 8.74998 19.8334C10.3006 20.475 12.0064 20.6433 13.6525 20.317C15.2986 19.9908 16.8113 19.1845 18 18L19.48 16.53V19.93H20.48V14.83H15.37V15.83Z" fill="#212121"/>
</svg>
