<svg width="32" height="32" viewBox="0 0 32 32" fill="none" xmlns="http://www.w3.org/2000/svg">
<path d="M9.73333 9.7091C10.5449 8.89636 11.5088 8.25158 12.5698 7.81166C13.6308 7.37174 14.7681 7.1453 15.9167 7.1453C17.0653 7.1453 18.2026 7.37174 19.2636 7.81166C20.3246 8.25158 21.2884 8.89636 22.1 9.7091L23.8267 11.4241H19.8483V12.5908H25.8217V6.6291H24.655V10.5958L22.9167 8.89244C21.5299 7.51045 19.7651 6.56987 17.8446 6.18923C15.9242 5.80859 13.934 6.00493 12.125 6.7535C10.3159 7.50208 8.76894 8.76938 7.67896 10.3957C6.58898 12.0221 6.00478 13.9346 6 15.8924H7.16667C7.16319 14.7431 7.38832 13.6045 7.82896 12.543C8.2696 11.4814 8.91694 10.5181 9.73333 9.7091ZM24.6667 15.8924C24.6651 17.6219 24.1511 19.3121 23.1896 20.7497C22.228 22.1872 20.862 23.3075 19.2641 23.9691C17.6662 24.6308 15.9081 24.804 14.2117 24.467C12.5154 24.1301 10.957 23.2979 9.73333 22.0758L8.00667 20.3608H11.985V19.1941H6.01167V25.1558H7.17833V21.1891L8.91667 22.8924C10.3034 24.2744 12.0682 25.215 13.9887 25.5956C15.9092 25.9763 17.8993 25.7799 19.7084 25.0314C21.5174 24.2828 23.0644 23.0155 24.1544 21.3892C25.2444 19.7628 25.8286 17.8502 25.8333 15.8924H24.6667Z" fill="black"/>
<path d="M14.1 14.17L15.83 13.2H16.83V20H15.65V14.52L14.63 15.08L14.1 14.17Z" fill="black"/>
</svg>
