<svg width="32" height="32" viewBox="0 0 32 32" fill="none" xmlns="http://www.w3.org/2000/svg">
<g clip-path="url(#clip0)">
<path d="M21.8626 28.3823H10.4483C9.8126 28.3823 9.20576 28.0934 8.8012 27.6166C8.45444 27.212 8.30996 26.7208 8.39665 26.2295L11.4886 6.36283C11.662 5.16361 12.5 4.35449 13.5548 4.35449H18.7562C19.7965 4.35449 20.6345 5.16361 20.8224 6.36283L23.9143 26.2295C23.9866 26.7208 23.8421 27.212 23.5098 27.6166C23.1052 28.1078 22.4839 28.3823 21.8626 28.3823ZM13.5548 5.2503C12.8612 5.2503 12.4711 5.88603 12.37 6.50732L9.26356 26.374C9.22021 26.663 9.35025 26.8941 9.46583 27.0386C9.69701 27.3132 10.0727 27.4865 10.4339 27.4865H21.8337C22.195 27.4865 22.5706 27.3132 22.8018 27.0386C22.9174 26.8941 23.0619 26.663 23.0041 26.374L19.941 6.50732C19.8399 5.88603 19.4353 5.2503 18.7418 5.2503H13.5548Z" fill="black"/>
<path d="M15.9958 22.0686C15.8079 22.0686 15.6346 21.953 15.5768 21.7652L9.84072 4.81707C9.76848 4.58589 9.88406 4.32582 10.1152 4.25358C10.3464 4.16689 10.6065 4.29692 10.6787 4.5281L16.4148 21.4762C16.487 21.7074 16.3714 21.9674 16.1403 22.0397C16.0825 22.0686 16.0391 22.0686 15.9958 22.0686Z" fill="black"/>
<path d="M3.13777 28.6025C2.97187 28.2702 3.03017 27.8579 3.32271 27.5841L28.4905 2.57712C28.8495 2.23819 29.4274 2.20516 29.7637 2.54814C30.1264 2.87793 30.1183 3.45677 29.7592 3.79569L4.59145 28.8027C4.23239 29.1416 3.65456 29.1747 3.31823 28.8317C3.21433 28.7558 3.17605 28.6792 3.13777 28.6025Z" fill="black"/>
<path d="M29.1666 28.6032C29.3325 28.2709 29.2742 27.8587 28.9816 27.5849L3.81128 2.5781C3.45222 2.23917 2.87439 2.20613 2.53807 2.54912C2.17531 2.8789 2.18347 3.45774 2.54254 3.79667C2.90161 4.13559 27.7129 28.8034 27.7129 28.8034C28.072 29.1424 28.6498 29.1754 28.9861 28.8324C29.09 28.7566 29.1283 28.6799 29.1666 28.6032Z" fill="black"/>
<path d="M12.7873 12.1431C13.3653 11.9408 14.0154 12.2587 14.2033 12.8366L14.5356 13.8191C14.7379 14.3971 14.42 15.0472 13.8421 15.2351C13.2641 15.4373 12.6284 15.105 12.4261 14.5271L12.0938 13.5446C11.8915 12.9811 12.1949 12.3454 12.7873 12.1431Z" fill="black"/>
<path d="M22.7288 22.5306H9.58072C9.33509 22.5306 9.13281 22.3283 9.13281 22.0827C9.13281 21.837 9.33509 21.6348 9.58072 21.6348H22.7288C22.9745 21.6348 23.1767 21.837 23.1767 22.0827C23.1767 22.3283 22.9745 22.5306 22.7288 22.5306Z" fill="black"/>
<path d="M16.819 3.90684L17.3102 4.54258C17.3969 4.65816 17.1947 4.80265 17.0502 4.80265H15.2441C15.1141 4.80265 14.9118 4.65816 14.9985 4.54258L15.4753 3.90684C15.7931 3.51673 16.5156 3.51673 16.819 3.90684Z" fill="black"/>
<path d="M19.5362 25.2767H12.7887C12.5431 25.2767 12.3408 25.0744 12.3408 24.8288C12.3408 24.5831 12.5431 24.3809 12.7887 24.3809H19.5362C19.7818 24.3809 19.9841 24.5831 19.9841 24.8288C19.9841 25.0744 19.7818 25.2767 19.5362 25.2767Z" fill="black"/>
</g>
<defs>
<clipPath id="clip0">
<rect width="32" height="32" fill="white"/>
</clipPath>
</defs>
</svg>
