<svg width="16" height="25" viewBox="0 0 16 25" fill="none" xmlns="http://www.w3.org/2000/svg">
<path d="M13.4906 24.7681H2.07626C1.44053 24.7681 0.833691 24.4791 0.429133 24.0023C0.0823691 23.5978 -0.0621152 23.1065 0.0245758 22.6153L3.11655 2.74857C3.28993 1.54935 4.12795 0.740234 5.18269 0.740234H10.3841C11.4244 0.740234 12.2624 1.54935 12.4503 2.74857L15.5423 22.6153C15.6145 23.1065 15.47 23.5978 15.1377 24.0023C14.7331 24.4936 14.1119 24.7681 13.4906 24.7681ZM5.18269 1.63604C4.48916 1.63604 4.09905 2.27177 3.99791 2.89306L0.891485 22.7597C0.84814 23.0487 0.978176 23.2799 1.09376 23.4244C1.32494 23.6989 1.7006 23.8723 2.06181 23.8723H13.4617C13.8229 23.8723 14.1985 23.6989 14.4297 23.4244C14.5453 23.2799 14.6898 23.0487 14.632 22.7597L11.5689 2.89306C11.4678 2.27177 11.0632 1.63604 10.3697 1.63604H5.18269Z" fill="black"/>
<path d="M7.6237 18.4534C7.43587 18.4534 7.26249 18.3378 7.2047 18.1499L1.46865 1.20183C1.39641 0.970659 1.51199 0.710586 1.74317 0.638343C1.97435 0.551652 2.23442 0.681688 2.30666 0.912864L8.04271 17.861C8.11495 18.0921 7.99936 18.3522 7.76819 18.4245C7.71039 18.4534 7.66705 18.4534 7.6237 18.4534Z" fill="black"/>
<path d="M4.41525 8.52884C4.99319 8.32656 5.64337 8.64443 5.8312 9.22236L6.16351 10.2049C6.36579 10.7828 6.04792 11.433 5.46999 11.6208C4.89205 11.8231 4.25631 11.4908 4.05403 10.9128L3.72172 9.93034C3.51944 9.36685 3.82286 8.73112 4.41525 8.52884Z" fill="black"/>
<path d="M14.3568 18.9163H1.20864C0.963021 18.9163 0.760742 18.714 0.760742 18.4684C0.760742 18.2228 0.963021 18.0205 1.20864 18.0205H14.3568C14.6024 18.0205 14.8047 18.2228 14.8047 18.4684C14.8047 18.714 14.6024 18.9163 14.3568 18.9163Z" fill="black"/>
<path d="M8.44692 0.292583L8.93817 0.928318C9.02486 1.04391 8.82258 1.18839 8.6781 1.18839H6.87203C6.74199 1.18839 6.53972 1.04391 6.62641 0.928318L7.10321 0.292583C7.42108 -0.0975275 8.1435 -0.0975275 8.44692 0.292583Z" fill="black"/>
<path d="M11.1631 21.6624H4.41568C4.17005 21.6624 3.96777 21.4601 3.96777 21.2145C3.96777 20.9689 4.17005 20.7666 4.41568 20.7666H11.1631C11.4088 20.7666 11.611 20.9689 11.611 21.2145C11.611 21.4601 11.4088 21.6624 11.1631 21.6624Z" fill="black"/>
</svg>
