<svg width="24" height="24" viewBox="0 0 24 24" fill="none" xmlns="http://www.w3.org/2000/svg">
<g clip-path="url(#clip0)">
<path d="M5.75957 19.4401H18.2396C18.9116 19.4401 19.4396 18.9121 19.4396 18.2401V5.76006C19.4396 5.08806 18.9116 4.56006 18.2396 4.56006H5.75957C5.08757 4.56006 4.55957 5.08806 4.55957 5.76006V18.2401C4.55957 18.9121 5.08757 19.4401 5.75957 19.4401ZM5.03957 18.2401V7.63206H7.15157V13.9921C7.15157 14.1361 7.24757 14.2321 7.39157 14.2321H8.15957V18.9601H5.75957C5.35157 18.9601 5.03957 18.6481 5.03957 18.2401ZM10.7516 7.63206V13.9921C10.7516 14.1361 10.8476 14.2321 10.9916 14.2321H11.7596V18.9601H8.63957V14.2321H9.40757C9.55157 14.2321 9.64757 14.1361 9.64757 13.9921V7.63206H10.7516ZM14.3516 7.63206V13.9921C14.3516 14.1361 14.4476 14.2321 14.5916 14.2321H15.3596V18.9601H12.2396V14.2321H13.0076C13.1516 14.2321 13.2476 14.1361 13.2476 13.9921V7.63206H14.3516ZM14.8316 13.7521V7.63206H16.3676V13.7521H14.8316ZM12.7676 13.7521H11.2316V7.63206H12.7676V13.7521ZM9.16757 13.7521H7.63157V7.63206H9.16757V13.7521ZM18.2396 18.9601H15.8396V14.2321H16.6076C16.7516 14.2321 16.8476 14.1361 16.8476 13.9921V7.63206H18.9596V18.2401C18.9596 18.6481 18.6476 18.9601 18.2396 18.9601ZM5.75957 5.04006H18.2396C18.6476 5.04006 18.9596 5.35206 18.9596 5.76006V7.15206H5.03957V5.76006C5.03957 5.35206 5.35157 5.04006 5.75957 5.04006Z" fill="black"/>
</g>
<defs>
<clipPath id="clip0">
<rect width="24" height="24" fill="white"/>
</clipPath>
</defs>
</svg>
