<svg width="24" height="24" viewBox="0 0 24 24" fill="none" xmlns="http://www.w3.org/2000/svg">
<path d="M21.8499 21.1499L15.9999 15.2899C17.3761 13.7318 18.0918 11.6992 17.9953 9.62256C17.8988 7.54595 16.9977 5.58844 15.483 4.16467C13.9682 2.7409 11.9587 1.96268 9.88009 1.99486C7.80148 2.02703 5.81703 2.86707 4.34705 4.33704C2.87708 5.80702 2.03704 7.79147 2.00487 9.87008C1.97269 11.9487 2.75091 13.9582 4.17468 15.473C5.59845 16.9877 7.55595 17.8888 9.63257 17.9853C11.7092 18.0818 13.7418 17.3661 15.2999 15.9899L21.1599 21.8499L21.8499 21.1499ZM9.99992 16.9999C8.61545 16.9999 7.26208 16.5894 6.11093 15.8202C4.95979 15.051 4.06258 13.9578 3.53277 12.6787C3.00295 11.3996 2.86433 9.99215 3.13443 8.63428C3.40452 7.27641 4.07121 6.02913 5.05018 5.05017C6.02914 4.0712 7.27642 3.40451 8.63429 3.13442C9.99216 2.86432 11.3996 3.00294 12.6787 3.53276C13.9578 4.06257 15.051 4.95978 15.8202 6.11092C16.5894 7.26207 16.9999 8.61544 16.9999 9.99991C16.9999 11.8564 16.2624 13.6369 14.9497 14.9497C13.6369 16.2624 11.8564 16.9999 9.99992 16.9999Z" fill="#212121"/>
</svg>
