<svg width="23" height="24" viewBox="0 0 23 24" fill="none" xmlns="http://www.w3.org/2000/svg">
<path d="M0 6.89978V16.2331H5.93355L12.8333 23.1329V0L5.93355 6.89978H0ZM11.6667 2.81645V20.3164L6.7585 15.4081L6.41667 15.0664H1.16667V8.06645H6.41667L11.6667 2.81645ZM15.8353 9.50385C16.3815 10.0513 16.6884 10.793 16.6884 11.5663C16.6884 12.3397 16.3815 13.0814 15.8353 13.6287L16.6602 14.4537C17.4249 13.6873 17.8543 12.6488 17.8543 11.5662C17.8543 10.4836 17.4249 9.44517 16.6602 8.67872L15.8353 9.50385ZM19.96 5.37915L19.1352 6.2041C20.5551 7.6274 21.3527 9.55577 21.3527 11.5663C21.3527 13.5768 20.5551 15.5053 19.1352 16.9285L19.96 17.7535C21.5986 16.1114 22.5189 13.8862 22.5189 11.5664C22.5189 9.2466 21.5986 7.02144 19.96 5.37927V5.37915Z" fill="black"/>
</svg>
