<svg width="137" height="66" viewBox="0 0 137 66" fill="none" xmlns="http://www.w3.org/2000/svg">
<path fill-rule="evenodd" clip-rule="evenodd" d="M130.681 2.62518C130.969 2.26974 131.332 1.95544 131.761 1.70777C133.438 0.739788 135.49 1.15613 136.346 2.6377C137.201 4.11927 136.535 6.10501 134.859 7.07299C133.182 8.04097 131.13 7.62463 130.274 6.14306C130.175 5.97086 130.096 5.79185 130.037 5.60842C111.905 1.91644 90.6359 2.05616 68.8855 10.9836C36.6251 24.2248 18.3691 45.1147 8.76764 61.5561L18.0518 58.5845C18.8384 58.3327 19.6569 58.7775 19.8801 59.5779C20.1032 60.3783 19.6465 61.2313 18.8599 61.4831L6.04156 65.5859C5.25495 65.8377 4.4364 65.3929 4.21324 64.5925L0.576758 51.549C0.353608 50.7486 0.810358 49.8956 1.59697 49.6438C2.38355 49.3921 3.20213 49.8368 3.42526 50.6373L6.11076 60.2697C15.9762 43.2841 34.743 21.7569 67.8537 8.16661C90.2484 -1.02529 112.115 -1.1534 130.681 2.62518Z" fill="#15F1FF"/>
</svg>
