<svg width="42" height="42" viewBox="0 0 42 42" fill="none" xmlns="http://www.w3.org/2000/svg">
<path d="M21.5181 3.20147C21.1787 3.11043 20.8213 3.11043 20.4819 3.20147L16.1131 4.37326C15.4228 4.55842 14.8838 5.0979 14.6991 5.78837L7.1225 34.125C7.105 34.125 7 34.72 7 35C7 36.9425 8.5575 38.5 10.5 38.5H31.5C33.4425 38.5 35 36.9425 35 35C35 34.72 34.895 34.125 34.8775 34.125L27.3009 5.78837C27.1162 5.0979 26.5772 4.55842 25.8869 4.37326L21.5181 3.20147ZM18.0075 7H23.9925L30.1 29.75H22.75V22C22.75 21.4477 22.3023 21 21.75 21H20.25C19.6977 21 19.25 21.4477 19.25 22V29.75H11.9L18.0075 7ZM20.25 8.75C19.6977 8.75 19.25 9.19772 19.25 9.75V15.75H18.5C17.9477 15.75 17.5 16.1977 17.5 16.75V18.25C17.5 18.8023 17.9477 19.25 18.5 19.25H23.5C24.0523 19.25 24.5 18.8023 24.5 18.25V16.75C24.5 16.1977 24.0523 15.75 23.5 15.75H22.75V9.75C22.75 9.19772 22.3023 8.75 21.75 8.75H20.25Z" fill="#232327"/>
</svg>
