<svg width="42" height="42" viewBox="0 0 42 42" fill="none" xmlns="http://www.w3.org/2000/svg">
<g clip-path="url(#clip0)">
<path fill-rule="evenodd" clip-rule="evenodd" d="M21 7.22C21.0002 6.84341 20.8925 6.47464 20.6894 6.15745C20.4864 5.84026 20.1967 5.58795 19.8546 5.43045C19.5125 5.27294 19.1325 5.21686 18.7595 5.26885C18.3865 5.32084 18.0362 5.47872 17.7502 5.72375L9.114 13.1263H4.59375C3.37541 13.1263 2.20697 13.6102 1.34548 14.4717C0.483983 15.3332 0 16.5017 0 17.72L0 24.2825C0 26.8183 2.058 28.8763 4.59375 28.8763H9.11662L17.7502 36.2788C18.0362 36.5238 18.3865 36.6817 18.7595 36.7337C19.1325 36.7856 19.5125 36.7296 19.8546 36.5721C20.1967 36.4146 20.4864 36.1623 20.6894 35.8451C20.8925 35.5279 21.0002 35.1591 21 34.7825V7.22ZM11.1248 16.5913L17.0625 11.4988V30.5038L11.1248 25.4113C10.7678 25.106 10.3134 24.9384 9.84375 24.9388H4.59375C4.4197 24.9388 4.25278 24.8696 4.12971 24.7465C4.00664 24.6235 3.9375 24.4566 3.9375 24.2825V17.72C3.9375 17.546 4.00664 17.379 4.12971 17.256C4.25278 17.1329 4.4197 17.0638 4.59375 17.0638H9.84375C10.3134 17.0641 10.7678 16.8965 11.1248 16.5913ZM29.61 13.7038C29.4298 13.5103 29.2124 13.3552 28.9709 13.2476C28.7294 13.14 28.4687 13.0821 28.2044 13.0775C27.94 13.0728 27.6775 13.1214 27.4323 13.2204C27.1872 13.3195 26.9645 13.4668 26.7775 13.6538C26.5906 13.8407 26.4432 14.0634 26.3442 14.3086C26.2452 14.5537 26.1965 14.8163 26.2012 15.0806C26.2059 15.345 26.2637 15.6057 26.3713 15.8472C26.4789 16.0887 26.6341 16.306 26.8275 16.4863L31.3425 21.0013L26.8275 25.5163C26.6341 25.6965 26.4789 25.9138 26.3713 26.1553C26.2637 26.3968 26.2059 26.6575 26.2012 26.9219C26.1965 27.1862 26.2452 27.4488 26.3442 27.694C26.4432 27.9391 26.5906 28.1618 26.7775 28.3487C26.9645 28.5357 27.1872 28.6831 27.4323 28.7821C27.6775 28.8811 27.94 28.9297 28.2044 28.9251C28.4687 28.9204 28.7294 28.8625 28.9709 28.7549C29.2124 28.6473 29.4298 28.4922 29.61 28.2988L34.125 23.7838L38.64 28.2988C38.8202 28.4922 39.0376 28.6473 39.2791 28.7549C39.5206 28.8625 39.7813 28.9204 40.0456 28.9251C40.31 28.9297 40.5726 28.8811 40.8177 28.7821C41.0628 28.6831 41.2855 28.5357 41.4725 28.3487C41.6594 28.1618 41.8068 27.9391 41.9058 27.694C42.0048 27.4488 42.0535 27.1862 42.0488 26.9219C42.0441 26.6575 41.9863 26.3968 41.8787 26.1553C41.7711 25.9138 41.6159 25.6965 41.4225 25.5163L36.9075 21.0013L41.4225 16.4863C41.7703 16.113 41.9596 15.6194 41.9506 15.1094C41.9416 14.5993 41.735 14.1127 41.3743 13.752C41.0135 13.3913 40.5269 13.1847 40.0169 13.1757C39.5068 13.1667 39.0132 13.356 38.64 13.7038L34.125 18.2188L29.61 13.7038Z" fill="#232327"/>
</g>
<defs>
<clipPath id="clip0">
<rect width="42" height="42" fill="white"/>
</clipPath>
</defs>
</svg>
