<svg width="17" height="17" viewBox="0 0 17 17" fill="none" xmlns="http://www.w3.org/2000/svg">
<path d="M11.055 8.375C11.055 8.90505 10.8978 9.4232 10.6033 9.86393C10.3089 10.3047 9.8903 10.6482 9.40059 10.851C8.91089 11.0538 8.37203 11.1069 7.85216 11.0035C7.33229 10.9001 6.85476 10.6449 6.47995 10.27C6.10515 9.89524 5.8499 9.41771 5.7465 8.89784C5.64309 8.37797 5.69616 7.83911 5.899 7.34941C6.10185 6.8597 6.44535 6.44114 6.88607 6.14666C7.3268 5.85218 7.84495 5.695 8.375 5.695C9.08553 5.69582 9.76672 5.97844 10.2691 6.48086C10.7716 6.98328 11.0542 7.66447 11.055 8.375ZM16.75 4.69V12.06C16.7486 13.3034 16.254 14.4955 15.3748 15.3748C14.4955 16.254 13.3034 16.7486 12.06 16.75H4.69C3.44657 16.7486 2.25447 16.254 1.37524 15.3748C0.495998 14.4955 0.00141863 13.3034 0 12.06V4.69C0.00141863 3.44657 0.495998 2.25447 1.37524 1.37524C2.25447 0.495998 3.44657 0.00141863 4.69 0H12.06C13.3034 0.00141863 14.4955 0.495998 15.3748 1.37524C16.254 2.25447 16.7486 3.44657 16.75 4.69ZM12.395 8.375C12.395 7.57992 12.1592 6.80269 11.7175 6.14161C11.2758 5.48052 10.6479 4.96527 9.91339 4.661C9.17883 4.35674 8.37054 4.27713 7.59074 4.43224C6.81093 4.58736 6.09464 4.97022 5.53243 5.53243C4.97022 6.09464 4.58736 6.81093 4.43224 7.59074C4.27713 8.37054 4.35674 9.17883 4.661 9.91339C4.96527 10.6479 5.48052 11.2758 6.14161 11.7175C6.80269 12.1592 7.57992 12.395 8.375 12.395C9.4408 12.3938 10.4626 11.9699 11.2162 11.2162C11.9699 10.4626 12.3938 9.4408 12.395 8.375ZM13.735 4.02C13.735 3.82123 13.6761 3.62692 13.5656 3.46165C13.4552 3.29638 13.2982 3.16757 13.1146 3.0915C12.931 3.01543 12.7289 2.99553 12.5339 3.03431C12.339 3.07309 12.1599 3.16881 12.0194 3.30936C11.8788 3.44991 11.7831 3.62898 11.7443 3.82393C11.7055 4.01889 11.7254 4.22096 11.8015 4.4046C11.8776 4.58824 12.0064 4.7452 12.1717 4.85563C12.3369 4.96606 12.5312 5.025 12.73 5.025C12.9965 5.025 13.2522 4.91912 13.4406 4.73064C13.6291 4.54217 13.735 4.28654 13.735 4.02Z" fill="#696A7B"/>
</svg>
