<svg width="18" height="15" viewBox="0 0 18 15" fill="none" xmlns="http://www.w3.org/2000/svg">
<path d="M17.7874 1.71522C17.1333 2.00507 16.4306 2.20091 15.6918 2.28944C16.4541 1.83335 17.0243 1.11552 17.2962 0.269888C16.5801 0.695254 15.7963 0.994665 14.979 1.15511C14.4293 0.568249 13.7013 0.179272 12.908 0.0485635C12.1146 -0.0821448 11.3003 0.0527291 10.5915 0.432245C9.88261 0.811761 9.31889 1.41469 8.98781 2.14741C8.65674 2.88014 8.57684 3.70167 8.76051 4.48446C7.30945 4.4116 5.88993 4.03445 4.59406 3.37747C3.29819 2.7205 2.15495 1.79838 1.23852 0.670978C0.925169 1.21151 0.744992 1.83821 0.744992 2.50565C0.744643 3.1065 0.892606 3.69814 1.17576 4.22809C1.4589 4.75803 1.86848 5.2099 2.36815 5.54359C1.78867 5.52515 1.22197 5.36857 0.715224 5.08688V5.13388C0.715166 5.97659 1.00667 6.79337 1.54026 7.44563C2.07386 8.09788 2.81669 8.54544 3.64271 8.71235C3.10514 8.85784 2.54154 8.87927 1.99448 8.77502C2.22753 9.50013 2.6815 10.1342 3.29282 10.5885C3.90415 11.0428 4.64223 11.2945 5.40374 11.3085C4.11104 12.3233 2.51455 12.8737 0.871116 12.8713C0.579998 12.8714 0.289126 12.8544 0 12.8204C1.66818 13.893 3.61007 14.4622 5.59332 14.46C12.3069 14.46 15.977 8.89958 15.977 4.0771C15.977 3.92043 15.9731 3.76219 15.966 3.60551C16.6799 3.08924 17.2961 2.44995 17.7858 1.71757L17.7874 1.71522Z" fill="#696A7B"/>
</svg>
