<svg width="23" height="23" viewBox="0 0 23 23" fill="none" xmlns="http://www.w3.org/2000/svg">
<path d="M14.6212 0.337104L14.5211 0.247402C14.2999 0.0727798 14.0223 -0.0145529 13.7409 0.00198279C13.4595 0.0185185 13.194 0.137772 12.9948 0.337104L12.9051 0.437155C12.7305 0.658152 12.6432 0.935559 12.6598 1.21668C12.6763 1.49781 12.7955 1.76307 12.9948 1.96208L14.4889 3.45365H8.05016L7.77411 3.45825C5.68888 3.52921 3.71271 4.4071 2.26237 5.90679C0.812025 7.40648 0.000879994 9.41073 0 11.4969C0 13.1586 0.503782 14.7031 1.36757 15.9808C1.54496 16.2287 1.8136 16.3961 2.11439 16.446C2.41519 16.496 2.7235 16.4244 2.97151 16.247C3.21951 16.0696 3.38689 15.801 3.43683 15.5003C3.48676 15.1995 3.41516 14.8913 3.23778 14.6433L3.0825 14.3926C2.5734 13.5191 2.30377 12.5268 2.30083 11.5159C2.29789 10.5049 2.56175 9.51103 3.06577 8.63462C3.56979 7.7582 4.29613 7.03024 5.17147 6.52421C6.04682 6.01818 7.04018 5.752 8.05131 5.75253H14.4866L12.9948 7.2441L12.9051 7.34415C12.7183 7.57379 12.6274 7.86664 12.6513 8.16166C12.6752 8.45668 12.812 8.7311 13.0333 8.92772C13.2545 9.12434 13.5432 9.228 13.839 9.21707C14.1348 9.20614 14.415 9.08148 14.6212 8.86907L18.0786 5.41557L18.1672 5.31552C18.3418 5.09453 18.4291 4.81712 18.4125 4.53599C18.396 4.25487 18.2768 3.98961 18.0775 3.7906L14.6212 0.337104ZM21.6086 6.97385C21.4613 6.78485 21.2585 6.64662 21.0288 6.57852C20.799 6.51042 20.5537 6.51585 20.3272 6.59405C20.1007 6.67225 19.9043 6.8193 19.7655 7.01464C19.6267 7.20997 19.5525 7.4438 19.5532 7.68341C19.5532 7.92376 19.6268 8.14571 19.751 8.32856C20.3229 9.19475 20.6495 10.1996 20.6961 11.2365C20.7427 12.2734 20.5076 13.3035 20.0158 14.2175C19.5239 15.1315 18.7936 15.8952 17.9026 16.4276C17.0115 16.96 15.9928 17.2411 14.9547 17.2412H8.52748L10.0158 15.7577L10.1113 15.6473C10.2679 15.4444 10.3523 15.1951 10.3511 14.9388C10.3498 14.6826 10.263 14.434 10.1044 14.2327L10.0158 14.1315L9.90656 14.0349C9.70341 13.878 9.45361 13.7934 9.19686 13.7946C8.9401 13.7959 8.69114 13.8829 8.48953 14.0418L8.38831 14.1315L4.932 17.585L4.83653 17.6943C4.67961 17.8972 4.59505 18.1468 4.5963 18.4033C4.59755 18.6598 4.68454 18.9086 4.84344 19.11L4.932 19.21L8.38831 22.6635L8.49758 22.7601C8.71964 22.9316 8.99675 23.016 9.27673 22.9975C9.55671 22.9789 9.82025 22.8587 10.0177 22.6594C10.2152 22.4601 10.333 22.1955 10.349 21.9154C10.365 21.6353 10.278 21.359 10.1044 21.1386L10.0158 21.0385L8.51598 19.5401H14.9524L15.2285 19.5366C16.6671 19.4872 18.066 19.0529 19.2797 18.279C20.4933 17.5051 21.4771 16.4199 22.1286 15.1366C22.78 13.8532 23.0753 12.4186 22.9837 10.9823C22.892 9.546 22.4167 8.16057 21.6074 6.9704V6.97385H21.6086Z" fill="white"/>
</svg>
