<svg width="23" height="26" viewBox="0 0 23 26" fill="none" xmlns="http://www.w3.org/2000/svg">
<path d="M1.10953 25C1.15815 24.7098 1.22361 24.3728 1.30718 23.9904C1.51367 23.0454 1.81576 21.8877 2.19433 20.5932C2.95128 18.0048 4.00387 14.904 5.18035 11.9226C6.35954 8.93441 7.64955 6.10119 8.87616 4.03049C9.49181 2.99117 10.0677 2.18494 10.5794 1.65129C11.1322 1.07469 11.4347 1 11.5002 1C11.5656 1 11.8681 1.07469 12.4209 1.65129C12.9326 2.18494 13.5085 2.99117 14.1241 4.03049C15.3508 6.10119 16.6408 8.93441 17.82 11.9226C18.9964 14.904 20.049 18.0048 20.806 20.5932C21.1845 21.8877 21.4866 23.0454 21.6931 23.9904C21.7767 24.3728 21.8422 24.7098 21.8908 25H1.10953Z" stroke="white" stroke-width="2"/>
<line x1="0.5" y1="-0.5" x2="21.0118" y2="-0.5" transform="matrix(0.445491 -0.895286 0.893562 0.448939 11.5003 22.1484)" stroke="white" stroke-linecap="round" stroke-linejoin="round"/>
<rect x="1.91669" y="20.2227" width="19.1667" height="1.92593" fill="white"/>
<path d="M18.7739 6.41408L18.6127 3.08221L21.5649 4.60788L18.7739 6.41408Z" fill="white"/>
</svg>
