<?xml version="1.0" encoding="utf-8"?>
<!-- Generator: Adobe Illustrator 22.0.1, SVG Export Plug-In . SVG Version: 6.00 Build 0)  -->
<svg version="1.1" id="Слой_1" xmlns="http://www.w3.org/2000/svg" xmlns:xlink="http://www.w3.org/1999/xlink" x="0px" y="0px"
	 viewBox="0 0 28 29" style="enable-background:new 0 0 28 29;" xml:space="preserve">
<style type="text/css">
	.st0{fill:#F7F7F7;}
</style>
<path class="st0" d="M8.2,28.3L8.2,28.3c-0.7,0-1.3-0.6-1.3-1.3V1.9c0-0.7,0.6-1.3,1.3-1.3h0c0.7,0,1.3,0.6,1.3,1.3V27
	C9.5,27.7,8.9,28.3,8.2,28.3z"/>
<path class="st0" d="M19.9,28.3L19.9,28.3c-0.7,0-1.3-0.6-1.3-1.3V1.9c0-0.7,0.6-1.3,1.3-1.3h0c0.7,0,1.3,0.6,1.3,1.3V27
	C21.2,27.7,20.6,28.3,19.9,28.3z"/>
</svg>
