<svg width="12" height="7" viewBox="0 0 12 7" fill="none" xmlns="http://www.w3.org/2000/svg">
<path d="M11.2883 0.308069C11.1958 0.215366 11.0859 0.141818 10.9649 0.0916366C10.8439 0.0414552 10.7142 0.015625 10.5833 0.015625C10.4523 0.015625 10.3226 0.0414551 10.2016 0.0916366C10.0807 0.141818 9.97078 0.215366 9.87827 0.308069L5.99827 4.18807L2.11827 0.308069C1.93129 0.121091 1.6777 0.016048 1.41327 0.016048C1.14884 0.016048 0.895246 0.121091 0.708268 0.308069C0.521291 0.495046 0.416249 0.748642 0.416249 1.01307C0.416249 1.27749 0.521291 1.53109 0.708268 1.71807L5.29827 6.30807C5.39078 6.40077 5.50067 6.47432 5.62164 6.5245C5.74262 6.57468 5.8723 6.60051 6.00327 6.60051C6.13424 6.60051 6.26392 6.57468 6.38489 6.5245C6.50587 6.47432 6.61576 6.40077 6.70827 6.30807L11.2983 1.71807C11.6783 1.33807 11.6783 0.698069 11.2883 0.308069Z" fill="#232327"/>
</svg>
