<svg width="65" height="65" viewBox="0 0 65 65" fill="none" xmlns="http://www.w3.org/2000/svg">
<path d="M3.91918 22.5314H1.46595C0.658182 22.5314 0 21.8783 0 21.0768V1.4546C0 0.653087 0.658182 0 1.46595 0H3.91918C4.72695 0 5.38514 0.653087 5.38514 1.4546V21.0768C5.38514 21.8783 4.72695 22.5314 3.91918 22.5314Z" fill="#B6CD17"/>
<path d="M13.8215 6.14494H11.3683C10.5605 6.14494 9.90234 5.49185 9.90234 4.69034V1.4546C9.90234 0.653087 10.5605 0 11.3683 0H13.8215C14.6293 0 15.2875 0.653087 15.2875 1.4546V4.69034C15.2875 5.49185 14.6592 6.14494 13.8215 6.14494Z" fill="#4ABDD2"/>
<path d="M13.8215 35.2968H11.3683C10.5605 35.2968 9.90234 34.6437 9.90234 33.8422V10.064C9.90234 9.26246 10.5605 8.60938 11.3683 8.60938H13.8215C14.6293 8.60938 15.2875 9.26246 15.2875 10.064V33.8422C15.2875 34.6437 14.6592 35.2968 13.8215 35.2968Z" fill="#4ABDD2"/>
<path d="M3.91918 33.3976H1.46595C0.658182 33.3976 0 32.7446 0 31.943V28.3511C0 27.5496 0.658182 26.8965 1.46595 26.8965H3.91918C4.72695 26.8965 5.38514 27.5496 5.38514 28.3511V31.943C5.38514 32.7446 4.72695 33.3976 3.91918 33.3976Z" fill="#4ABDD2"/>
<path d="M3.91918 43.9052H1.46595C0.658182 43.9052 0 43.2521 0 42.4506V39.2148C0 38.4133 0.658182 37.7603 1.46595 37.7603H3.91918C4.72695 37.7603 5.38514 38.4133 5.38514 39.2148V42.4506C5.38514 43.2521 4.72695 43.9052 3.91918 43.9052Z" fill="#B6CD17"/>
<path d="M22.9456 26.2719H20.4923C19.6846 26.2719 19.0264 25.6188 19.0264 24.8173V5.55128C19.0264 4.74977 19.6846 4.09668 20.4923 4.09668H22.9456C23.7533 4.09668 24.4115 4.74977 24.4115 5.55128V24.8173C24.4115 25.6188 23.7533 26.2719 22.9456 26.2719Z" fill="#B6CD17"/>
<path d="M13.8215 48.627H11.3683C10.5605 48.627 9.90234 47.9739 9.90234 47.1724V40.4634C9.90234 39.6619 10.5605 39.0088 11.3683 39.0088H13.8215C14.6293 39.0088 15.2875 39.6619 15.2875 40.4634V47.1724C15.2875 47.9739 14.6592 48.627 13.8215 48.627Z" fill="#B6CD17"/>
<path d="M22.9456 41.4432H20.4923C19.6846 41.4432 19.0264 40.7901 19.0264 39.9886V30.1626C19.0264 29.3611 19.6846 28.708 20.4923 28.708H22.9456C23.7533 28.708 24.4115 29.3611 24.4115 30.1626V39.9886C24.4115 40.7901 23.7533 41.4432 22.9456 41.4432Z" fill="#B6CD17"/>
<path d="M30.04 36.1337C29.864 36.1337 29.736 36.1711 29.656 36.2457C29.5813 36.3204 29.536 36.4084 29.52 36.5097C29.504 36.6057 29.496 36.6911 29.496 36.7657V38.7817C29.496 39.0804 29.5147 39.3711 29.552 39.6537C29.5947 39.9311 29.672 40.1817 29.784 40.4057C29.896 40.6297 30.0613 40.8084 30.28 40.9417C30.504 41.0751 30.7947 41.1417 31.152 41.1417C31.536 41.1417 31.848 41.0511 32.088 40.8697C32.3333 40.6884 32.512 40.4377 32.624 40.1177C32.7413 39.7977 32.8027 39.4297 32.808 39.0137L32.832 36.7657C32.832 36.6591 32.8347 36.5577 32.84 36.4617C32.8453 36.3604 32.8507 36.2697 32.856 36.1897C32.76 36.1951 32.664 36.2004 32.568 36.2057C32.4773 36.2111 32.384 36.2164 32.288 36.2217V35.8697H33.776V36.1337C33.5733 36.1391 33.432 36.1844 33.352 36.2697C33.2773 36.3551 33.2347 36.4697 33.224 36.6137C33.2187 36.7577 33.216 36.9257 33.216 37.1177L33.2 38.9737C33.2 39.3204 33.1627 39.6511 33.088 39.9657C33.0133 40.2804 32.8907 40.5604 32.72 40.8057C32.5547 41.0511 32.3333 41.2457 32.056 41.3897C31.784 41.5284 31.448 41.5977 31.048 41.5977C30.6213 41.5977 30.2613 41.5417 29.968 41.4297C29.68 41.3177 29.448 41.1444 29.272 40.9097C29.1013 40.6751 28.9787 40.3791 28.904 40.0217C28.8293 39.6644 28.792 39.2377 28.792 38.7417V37.1177C28.792 36.9791 28.7947 36.8164 28.8 36.6297C28.8107 36.4377 28.8187 36.2911 28.824 36.1897C28.728 36.1951 28.632 36.2004 28.536 36.2057C28.44 36.2057 28.344 36.2084 28.248 36.2137V35.8697H30.04V36.1337ZM34.7676 41.2297C34.933 41.2297 35.0476 41.1897 35.1116 41.1097C35.1756 41.0244 35.213 40.9097 35.2236 40.7657C35.2343 40.6164 35.2396 40.4457 35.2396 40.2537V36.4697C35.2396 36.3844 35.2396 36.3044 35.2396 36.2297C35.245 36.1497 35.253 36.0564 35.2636 35.9497C35.1676 35.9551 35.0716 35.9604 34.9756 35.9657C34.885 35.9711 34.7916 35.9764 34.6956 35.9817V35.6457C34.9303 35.6457 35.1116 35.6351 35.2396 35.6137C35.373 35.5924 35.4716 35.5657 35.5356 35.5337C35.605 35.5017 35.6583 35.4671 35.6956 35.4297H35.9276L35.9356 40.6217C35.9356 40.7284 35.933 40.8244 35.9276 40.9097C35.9223 40.9897 35.9116 41.0751 35.8956 41.1657C35.981 41.1604 36.0636 41.1577 36.1436 41.1577C36.229 41.1524 36.3143 41.1471 36.3996 41.1417V41.4697H34.7676V41.2297ZM39.0113 41.5977C38.8886 41.5977 38.7633 41.5791 38.6353 41.5417C38.5073 41.5097 38.3873 41.4431 38.2753 41.3417C38.1686 41.2404 38.0833 41.0937 38.0193 40.9017C37.9553 40.7044 37.9233 40.4457 37.9233 40.1257L37.9393 37.8057L37.3233 37.8137V37.4697C37.462 37.4644 37.6033 37.4137 37.7473 37.3177C37.8913 37.2164 38.0193 37.0804 38.1313 36.9097C38.2486 36.7391 38.3286 36.5524 38.3713 36.3497H38.6433V37.4697H39.9873V37.7817L38.6433 37.7977L38.6273 40.0217C38.6273 40.2617 38.646 40.4671 38.6833 40.6377C38.726 40.8031 38.7926 40.9284 38.8833 41.0137C38.974 41.0991 39.0913 41.1417 39.2353 41.1417C39.3846 41.1417 39.5233 41.0991 39.6513 41.0137C39.7846 40.9284 39.902 40.8111 40.0033 40.6617L40.2193 40.8377C40.102 41.0137 39.9846 41.1524 39.8673 41.2537C39.7553 41.3551 39.646 41.4297 39.5393 41.4777C39.4326 41.5311 39.334 41.5631 39.2433 41.5737C39.1526 41.5897 39.0753 41.5977 39.0113 41.5977ZM41.0811 41.2297C41.2464 41.2297 41.3611 41.1897 41.4251 41.1097C41.4891 41.0244 41.5264 40.9097 41.5371 40.7657C41.5477 40.6164 41.5531 40.4457 41.5531 40.2537V38.4297C41.5531 38.3444 41.5557 38.2644 41.5611 38.1897C41.5664 38.1097 41.5744 38.0164 41.5851 37.9097C41.4891 37.9151 41.3931 37.9204 41.2971 37.9257C41.2064 37.9311 41.1131 37.9364 41.0171 37.9417V37.6057C41.2517 37.6057 41.4331 37.5951 41.5611 37.5737C41.6891 37.5524 41.7851 37.5257 41.8491 37.4937C41.9184 37.4617 41.9717 37.4271 42.0091 37.3897H42.2411V40.6217C42.2411 40.7284 42.2384 40.8244 42.2331 40.9097C42.2331 40.9897 42.2251 41.0751 42.2091 41.1657C42.2944 41.1604 42.3771 41.1577 42.4571 41.1577C42.5424 41.1524 42.6277 41.1471 42.7131 41.1417V41.4697H41.0811V41.2297ZM41.8571 36.5977C41.7451 36.5977 41.6464 36.5524 41.5611 36.4617C41.4757 36.3711 41.4331 36.2591 41.4331 36.1257C41.4331 35.9924 41.4757 35.8804 41.5611 35.7897C41.6517 35.6937 41.7531 35.6457 41.8651 35.6457C41.9877 35.6457 42.0891 35.6937 42.1691 35.7897C42.2544 35.8804 42.2971 35.9924 42.2971 36.1257C42.2971 36.2591 42.2517 36.3711 42.1611 36.4617C42.0757 36.5524 41.9744 36.5977 41.8571 36.5977ZM43.8111 41.4697V41.2297C43.9764 41.2297 44.0911 41.1897 44.1551 41.1097C44.2191 41.0244 44.2564 40.9097 44.2671 40.7657C44.2777 40.6164 44.2831 40.4457 44.2831 40.2537V38.4297C44.2831 38.3444 44.2831 38.2591 44.2831 38.1737C44.2884 38.0884 44.2991 38.0004 44.3151 37.9097C44.2191 37.9151 44.1231 37.9204 44.0271 37.9257C43.9364 37.9311 43.8431 37.9364 43.7471 37.9417V37.6057C43.9817 37.6057 44.1577 37.5951 44.2751 37.5737C44.3977 37.5524 44.4884 37.5257 44.5471 37.4937C44.6057 37.4617 44.6537 37.4271 44.6911 37.3897H44.9231C44.9337 37.4431 44.9391 37.5044 44.9391 37.5737C44.9444 37.6431 44.9497 37.7231 44.9551 37.8137C45.1151 37.6751 45.2991 37.5631 45.5071 37.4777C45.7151 37.3871 45.9231 37.3417 46.1311 37.3417C46.3977 37.3417 46.6217 37.3897 46.8031 37.4857C46.9844 37.5817 47.1257 37.7124 47.2271 37.8777C47.4084 37.7284 47.6164 37.6031 47.8511 37.5017C48.0911 37.3951 48.3257 37.3417 48.5551 37.3417C49.0191 37.3417 49.3604 37.4831 49.5791 37.7657C49.7977 38.0431 49.9017 38.4991 49.8911 39.1337L49.8831 40.6217C49.8831 40.7284 49.8804 40.8244 49.8751 40.9097C49.8751 40.9897 49.8671 41.0751 49.8511 41.1657C49.9364 41.1604 50.0191 41.1577 50.0991 41.1577C50.1844 41.1524 50.2697 41.1471 50.3551 41.1417V41.4697H48.7231V41.2297C48.8884 41.2297 49.0031 41.1897 49.0671 41.1097C49.1311 41.0244 49.1684 40.9097 49.1791 40.7657C49.1897 40.6164 49.1951 40.4457 49.1951 40.2537V39.1337C49.1951 38.6751 49.1204 38.3311 48.9711 38.1017C48.8271 37.8724 48.5977 37.7604 48.2831 37.7657C48.1177 37.7657 47.9524 37.8031 47.7871 37.8777C47.6217 37.9524 47.4777 38.0457 47.3551 38.1577C47.3817 38.2431 47.4004 38.3364 47.4111 38.4377C47.4271 38.5337 47.4351 38.6351 47.4351 38.7417C47.4297 39.0511 47.4271 39.3631 47.4271 39.6777C47.4271 39.9924 47.4244 40.3071 47.4191 40.6217C47.4191 40.7284 47.4164 40.8244 47.4111 40.9097C47.4111 40.9897 47.4031 41.0751 47.3871 41.1657C47.4724 41.1604 47.5551 41.1577 47.6351 41.1577C47.7204 41.1524 47.8057 41.1471 47.8911 41.1417V41.4697H46.2591V41.2297C46.4244 41.2297 46.5364 41.1897 46.5951 41.1097C46.6591 41.0244 46.6964 40.9097 46.7071 40.7657C46.7231 40.6164 46.7311 40.4457 46.7311 40.2537L46.7391 39.1337C46.7444 38.6751 46.6777 38.3284 46.5391 38.0937C46.4004 37.8591 46.1737 37.7444 45.8591 37.7497C45.6937 37.7497 45.5311 37.7871 45.3711 37.8617C45.2111 37.9311 45.0751 38.0217 44.9631 38.1337C44.9631 38.1977 44.9631 38.2671 44.9631 38.3417C44.9684 38.4111 44.9711 38.4857 44.9711 38.5657V40.6217C44.9711 40.7284 44.9684 40.8244 44.9631 40.9097C44.9631 40.9897 44.9551 41.0751 44.9391 41.1657C45.0244 41.1604 45.1071 41.1577 45.1871 41.1577C45.2724 41.1524 45.3577 41.1471 45.4431 41.1417V41.4697H43.8111ZM53.8715 41.4697C53.8555 41.3791 53.8448 41.2991 53.8395 41.2297C53.8342 41.1604 53.8262 41.0884 53.8155 41.0137C53.6342 41.1951 53.4368 41.3391 53.2235 41.4457C53.0155 41.5471 52.7942 41.5977 52.5595 41.5977C52.1542 41.5977 51.8528 41.5071 51.6555 41.3257C51.4582 41.1391 51.3595 40.9124 51.3595 40.6457C51.3595 40.4004 51.4342 40.1897 51.5835 40.0137C51.7382 39.8324 51.9355 39.6857 52.1755 39.5737C52.4208 39.4564 52.6848 39.3711 52.9675 39.3177C53.2555 39.2591 53.5328 39.2324 53.7995 39.2377V38.7417C53.7995 38.5551 53.7835 38.3791 53.7515 38.2137C53.7195 38.0484 53.6502 37.9124 53.5435 37.8057C53.4368 37.6991 53.2662 37.6431 53.0315 37.6377C52.8768 37.6324 52.7168 37.6617 52.5515 37.7257C52.3915 37.7897 52.2742 37.8991 52.1995 38.0537C52.2422 38.0964 52.2688 38.1471 52.2795 38.2057C52.2955 38.2591 52.3035 38.3097 52.3035 38.3577C52.3035 38.4217 52.2768 38.4964 52.2235 38.5817C52.1702 38.6617 52.0768 38.6991 51.9435 38.6937C51.8315 38.6937 51.7462 38.6564 51.6875 38.5817C51.6288 38.5017 51.5995 38.4084 51.5995 38.3017C51.5995 38.1204 51.6662 37.9577 51.7995 37.8137C51.9382 37.6697 52.1275 37.5551 52.3675 37.4697C52.6075 37.3844 52.8795 37.3417 53.1835 37.3417C53.6315 37.3417 53.9622 37.4617 54.1755 37.7017C54.3888 37.9364 54.4928 38.3097 54.4875 38.8217C54.4875 39.0191 54.4875 39.2191 54.4875 39.4217C54.4875 39.6191 54.4848 39.8191 54.4795 40.0217C54.4795 40.2191 54.4795 40.4191 54.4795 40.6217C54.4795 40.7071 54.4768 40.7924 54.4715 40.8777C54.4662 40.9631 54.4582 41.0591 54.4475 41.1657C54.5435 41.1604 54.6368 41.1551 54.7275 41.1497C54.8235 41.1444 54.9195 41.1391 55.0155 41.1337V41.4697H53.8715ZM53.7995 39.5097C53.6182 39.5151 53.4262 39.5391 53.2235 39.5817C53.0262 39.6191 52.8422 39.6777 52.6715 39.7577C52.5062 39.8377 52.3702 39.9444 52.2635 40.0777C52.1622 40.2057 52.1142 40.3631 52.1195 40.5497C52.1302 40.7471 52.1942 40.8964 52.3115 40.9977C52.4342 41.0937 52.5782 41.1417 52.7435 41.1417C52.9622 41.1417 53.1515 41.1017 53.3115 41.0217C53.4768 40.9364 53.6395 40.8191 53.7995 40.6697C53.7942 40.6111 53.7915 40.5471 53.7915 40.4777C53.7915 40.4084 53.7915 40.3364 53.7915 40.2617C53.7915 40.2351 53.7915 40.1497 53.7915 40.0057C53.7968 39.8617 53.7995 39.6964 53.7995 39.5097ZM57.4938 41.5977C57.3711 41.5977 57.2458 41.5791 57.1178 41.5417C56.9898 41.5097 56.8698 41.4431 56.7578 41.3417C56.6511 41.2404 56.5658 41.0937 56.5018 40.9017C56.4378 40.7044 56.4058 40.4457 56.4058 40.1257L56.4218 37.8057L55.8058 37.8137V37.4697C55.9445 37.4644 56.0858 37.4137 56.2298 37.3177C56.3738 37.2164 56.5018 37.0804 56.6138 36.9097C56.7311 36.7391 56.8111 36.5524 56.8538 36.3497H57.1258V37.4697H58.4698V37.7817L57.1258 37.7977L57.1098 40.0217C57.1098 40.2617 57.1285 40.4671 57.1658 40.6377C57.2085 40.8031 57.2751 40.9284 57.3658 41.0137C57.4565 41.0991 57.5738 41.1417 57.7178 41.1417C57.8671 41.1417 58.0058 41.0991 58.1338 41.0137C58.2671 40.9284 58.3845 40.8111 58.4858 40.6617L58.7018 40.8377C58.5845 41.0137 58.4671 41.1524 58.3498 41.2537C58.2378 41.3551 58.1285 41.4297 58.0218 41.4777C57.9151 41.5311 57.8165 41.5631 57.7258 41.5737C57.6351 41.5897 57.5578 41.5977 57.4938 41.5977ZM61.4996 41.5977C61.1316 41.5977 60.7982 41.5124 60.4996 41.3417C60.2062 41.1657 59.9742 40.9204 59.8036 40.6057C59.6329 40.2857 59.5476 39.9097 59.5476 39.4777C59.5476 39.1044 59.6302 38.7551 59.7956 38.4297C59.9662 38.1044 60.2036 37.8431 60.5076 37.6457C60.8116 37.4431 61.1636 37.3417 61.5636 37.3417C61.7876 37.3417 61.9956 37.3791 62.1876 37.4537C62.3849 37.5231 62.5582 37.6324 62.7076 37.7817C62.8569 37.9257 62.9742 38.1097 63.0596 38.3337C63.1449 38.5524 63.1876 38.8111 63.1876 39.1097L60.3716 39.1577C60.3716 39.5631 60.4142 39.9204 60.4996 40.2297C60.5902 40.5337 60.7342 40.7711 60.9316 40.9417C61.1289 41.1071 61.3822 41.1897 61.6916 41.1897C61.8569 41.1897 62.0249 41.1604 62.1956 41.1017C62.3716 41.0431 62.5342 40.9631 62.6836 40.8617C62.8329 40.7604 62.9529 40.6484 63.0436 40.5257L63.2356 40.6857C63.0916 40.9097 62.9182 41.0884 62.7156 41.2217C62.5129 41.3551 62.3049 41.4511 62.0916 41.5097C61.8782 41.5684 61.6809 41.5977 61.4996 41.5977ZM60.3956 38.8217H62.4356C62.4356 38.6297 62.4062 38.4457 62.3476 38.2697C62.2942 38.0884 62.2036 37.9417 62.0756 37.8297C61.9476 37.7124 61.7796 37.6537 61.5716 37.6537C61.2622 37.6537 61.0036 37.7471 60.7956 37.9337C60.5929 38.1151 60.4596 38.4111 60.3956 38.8217ZM41.3478 49.2057C41.5505 49.1951 41.6891 49.1497 41.7638 49.0697C41.8385 48.9844 41.8785 48.8697 41.8838 48.7257C41.8945 48.5764 41.8998 48.4084 41.8998 48.2217V44.7657C41.8998 44.6591 41.9025 44.5577 41.9078 44.4617C41.9131 44.3604 41.9185 44.2697 41.9238 44.1897C41.8278 44.1951 41.7318 44.2004 41.6358 44.2057C41.5398 44.2111 41.4438 44.2164 41.3478 44.2217V43.8697C41.6305 43.8644 41.9211 43.8617 42.2198 43.8617C42.5185 43.8564 42.8225 43.8537 43.1318 43.8537C43.6491 43.8537 44.0838 43.9124 44.4358 44.0297C44.7878 44.1471 45.0571 44.3204 45.2438 44.5497C45.4305 44.7791 45.5318 45.0644 45.5478 45.4057C45.5585 45.6137 45.5265 45.8324 45.4518 46.0617C45.3825 46.2857 45.2491 46.4991 45.0518 46.7017C44.8598 46.8991 44.5878 47.0591 44.2358 47.1817C43.8838 47.3044 43.4331 47.3657 42.8838 47.3657C42.8625 47.3657 42.8225 47.3657 42.7638 47.3657C42.7051 47.3657 42.6491 47.3631 42.5958 47.3577V48.5177C42.5958 48.6617 42.5931 48.7871 42.5878 48.8937C42.5878 48.9951 42.5825 49.0804 42.5718 49.1497C42.6571 49.1444 42.7398 49.1391 42.8198 49.1337C42.8998 49.1284 42.9798 49.1257 43.0598 49.1257C43.1451 49.1204 43.2278 49.1151 43.3078 49.1097V49.4697H41.3478V49.2057ZM42.5958 47.0297C42.6971 47.0404 42.7825 47.0484 42.8518 47.0537C42.9265 47.0537 43.0145 47.0537 43.1158 47.0537C43.4198 47.0537 43.6971 46.9951 43.9478 46.8777C44.1985 46.7551 44.3985 46.5817 44.5478 46.3577C44.6971 46.1337 44.7718 45.8671 44.7718 45.5577C44.7718 45.3071 44.7318 45.0937 44.6518 44.9177C44.5718 44.7364 44.4571 44.5924 44.3078 44.4857C44.1638 44.3737 43.9905 44.2937 43.7878 44.2457C43.5851 44.1924 43.3611 44.1657 43.1158 44.1657C42.9291 44.1657 42.7985 44.2057 42.7238 44.2857C42.6545 44.3657 42.6145 44.4777 42.6038 44.6217C42.5985 44.7604 42.5958 44.9257 42.5958 45.1177V47.0297ZM46.5914 49.2297C46.7567 49.2297 46.8714 49.1897 46.9354 49.1097C46.9994 49.0244 47.0367 48.9097 47.0474 48.7657C47.058 48.6164 47.0634 48.4457 47.0634 48.2537V46.4297C47.0634 46.3444 47.066 46.2644 47.0714 46.1897C47.0767 46.1097 47.0847 46.0164 47.0954 45.9097C46.9994 45.9151 46.9034 45.9204 46.8074 45.9257C46.7167 45.9311 46.6234 45.9364 46.5274 45.9417V45.6057C46.762 45.6057 46.9434 45.5951 47.0714 45.5737C47.1994 45.5524 47.2954 45.5257 47.3594 45.4937C47.4287 45.4617 47.482 45.4271 47.5194 45.3897H47.7514V48.6217C47.7514 48.7284 47.7487 48.8244 47.7434 48.9097C47.7434 48.9897 47.7354 49.0751 47.7194 49.1657C47.8047 49.1604 47.8874 49.1577 47.9674 49.1577C48.0527 49.1524 48.138 49.1471 48.2234 49.1417V49.4697H46.5914V49.2297ZM47.3674 44.5977C47.2554 44.5977 47.1567 44.5524 47.0714 44.4617C46.986 44.3711 46.9434 44.2591 46.9434 44.1257C46.9434 43.9924 46.986 43.8804 47.0714 43.7897C47.162 43.6937 47.2634 43.6457 47.3754 43.6457C47.498 43.6457 47.5994 43.6937 47.6794 43.7897C47.7647 43.8804 47.8074 43.9924 47.8074 44.1257C47.8074 44.2591 47.762 44.3711 47.6714 44.4617C47.586 44.5524 47.4847 44.5977 47.3674 44.5977ZM51.7534 49.4697C51.7374 49.3791 51.7267 49.2991 51.7214 49.2297C51.716 49.1604 51.708 49.0884 51.6974 49.0137C51.516 49.1951 51.3187 49.3391 51.1054 49.4457C50.8974 49.5471 50.676 49.5977 50.4414 49.5977C50.036 49.5977 49.7347 49.5071 49.5374 49.3257C49.34 49.1391 49.2414 48.9124 49.2414 48.6457C49.2414 48.4004 49.316 48.1897 49.4654 48.0137C49.62 47.8324 49.8174 47.6857 50.0574 47.5737C50.3027 47.4564 50.5667 47.3711 50.8494 47.3177C51.1374 47.2591 51.4147 47.2324 51.6814 47.2377V46.7417C51.6814 46.5551 51.6654 46.3791 51.6334 46.2137C51.6014 46.0484 51.532 45.9124 51.4254 45.8057C51.3187 45.6991 51.148 45.6431 50.9134 45.6377C50.7587 45.6324 50.5987 45.6617 50.4334 45.7257C50.2734 45.7897 50.156 45.8991 50.0814 46.0537C50.124 46.0964 50.1507 46.1471 50.1614 46.2057C50.1774 46.2591 50.1854 46.3097 50.1854 46.3577C50.1854 46.4217 50.1587 46.4964 50.1054 46.5817C50.052 46.6617 49.9587 46.6991 49.8254 46.6937C49.7134 46.6937 49.628 46.6564 49.5694 46.5817C49.5107 46.5017 49.4814 46.4084 49.4814 46.3017C49.4814 46.1204 49.548 45.9577 49.6814 45.8137C49.82 45.6697 50.0094 45.5551 50.2494 45.4697C50.4894 45.3844 50.7614 45.3417 51.0654 45.3417C51.5134 45.3417 51.844 45.4617 52.0574 45.7017C52.2707 45.9364 52.3747 46.3097 52.3694 46.8217C52.3694 47.0191 52.3694 47.2191 52.3694 47.4217C52.3694 47.6191 52.3667 47.8191 52.3614 48.0217C52.3614 48.2191 52.3614 48.4191 52.3614 48.6217C52.3614 48.7071 52.3587 48.7924 52.3534 48.8777C52.348 48.9631 52.34 49.0591 52.3294 49.1657C52.4254 49.1604 52.5187 49.1551 52.6094 49.1497C52.7054 49.1444 52.8014 49.1391 52.8974 49.1337V49.4697H51.7534ZM51.6814 47.5097C51.5 47.5151 51.308 47.5391 51.1054 47.5817C50.908 47.6191 50.724 47.6777 50.5534 47.7577C50.388 47.8377 50.252 47.9444 50.1454 48.0777C50.044 48.2057 49.996 48.3631 50.0014 48.5497C50.012 48.7471 50.076 48.8964 50.1934 48.9977C50.316 49.0937 50.46 49.1417 50.6254 49.1417C50.844 49.1417 51.0334 49.1017 51.1934 49.0217C51.3587 48.9364 51.5214 48.8191 51.6814 48.6697C51.676 48.6111 51.6734 48.5471 51.6734 48.4777C51.6734 48.4084 51.6734 48.3364 51.6734 48.2617C51.6734 48.2351 51.6734 48.1497 51.6734 48.0057C51.6787 47.8617 51.6814 47.6964 51.6814 47.5097ZM53.9264 49.4697V49.2297C54.0917 49.2297 54.2064 49.1897 54.2704 49.1097C54.3344 49.0244 54.3717 48.9097 54.3824 48.7657C54.393 48.6164 54.3984 48.4457 54.3984 48.2537L54.4064 46.4297C54.4064 46.3444 54.4064 46.2591 54.4064 46.1737C54.4117 46.0884 54.4224 46.0004 54.4384 45.9097C54.3424 45.9151 54.2464 45.9204 54.1504 45.9257C54.0597 45.9311 53.9664 45.9364 53.8704 45.9417V45.6057C54.105 45.6057 54.281 45.5951 54.3984 45.5737C54.521 45.5524 54.6117 45.5257 54.6704 45.4937C54.729 45.4617 54.777 45.4271 54.8144 45.3897H55.0464C55.0517 45.4271 55.0544 45.4697 55.0544 45.5177C55.0597 45.5657 55.065 45.6191 55.0704 45.6777C55.0757 45.7364 55.0784 45.8031 55.0784 45.8777C55.1957 45.7764 55.3237 45.6857 55.4624 45.6057C55.6064 45.5257 55.7557 45.4617 55.9104 45.4137C56.0704 45.3657 56.2277 45.3417 56.3824 45.3417C56.8464 45.3417 57.185 45.4884 57.3984 45.7817C57.6117 46.0697 57.7184 46.5204 57.7184 47.1337V48.6217C57.7184 48.7284 57.7157 48.8244 57.7104 48.9097C57.7104 48.9897 57.7024 49.0751 57.6864 49.1657C57.7717 49.1604 57.8544 49.1577 57.9344 49.1577C58.0197 49.1524 58.105 49.1471 58.1904 49.1417V49.4697H56.5584V49.2297C56.7237 49.2297 56.8384 49.1897 56.9024 49.1097C56.9664 49.0244 57.0037 48.9097 57.0144 48.7657C57.025 48.6164 57.0304 48.4457 57.0304 48.2537V47.1337C57.025 46.6751 56.9477 46.3284 56.7984 46.0937C56.6544 45.8591 56.425 45.7444 56.1104 45.7497C55.9184 45.7551 55.729 45.8057 55.5424 45.9017C55.361 45.9977 55.209 46.1204 55.0864 46.2697C55.0917 46.3124 55.0944 46.3604 55.0944 46.4137C55.0944 46.4671 55.0944 46.5231 55.0944 46.5817L55.0864 48.6217C55.0864 48.7284 55.0837 48.8244 55.0784 48.9097C55.0784 48.9897 55.0704 49.0751 55.0544 49.1657C55.1397 49.1604 55.2224 49.1577 55.3024 49.1577C55.3877 49.1524 55.473 49.1471 55.5584 49.1417V49.4697H53.9264ZM61.2497 49.5977C60.8764 49.5977 60.5377 49.5124 60.2337 49.3417C59.9297 49.1657 59.6871 48.9257 59.5057 48.6217C59.3297 48.3124 59.2417 47.9604 59.2417 47.5657C59.2417 47.1444 59.3297 46.7657 59.5057 46.4297C59.6817 46.0937 59.9217 45.8297 60.2257 45.6377C60.5297 45.4404 60.8711 45.3417 61.2497 45.3417C61.6231 45.3417 61.9617 45.4324 62.2657 45.6137C62.5697 45.7897 62.8124 46.0297 62.9938 46.3337C63.1751 46.6377 63.2657 46.9844 63.2657 47.3737C63.2657 47.7844 63.1751 48.1604 62.9938 48.5017C62.8177 48.8377 62.5777 49.1044 62.2737 49.3017C61.9697 49.4991 61.6284 49.5977 61.2497 49.5977ZM61.3137 49.2777C61.5964 49.2777 61.8204 49.1977 61.9857 49.0377C62.1511 48.8777 62.2684 48.6697 62.3377 48.4137C62.4124 48.1577 62.4497 47.8884 62.4497 47.6057C62.4497 47.3657 62.4257 47.1311 62.3777 46.9017C62.3351 46.6671 62.2657 46.4564 62.1697 46.2697C62.0737 46.0777 61.9484 45.9257 61.7937 45.8137C61.6444 45.7017 61.4631 45.6457 61.2497 45.6457C60.9724 45.6457 60.7457 45.7257 60.5697 45.8857C60.3937 46.0457 60.2631 46.2537 60.1777 46.5097C60.0977 46.7657 60.0577 47.0404 60.0577 47.3337C60.0577 47.6644 60.1031 47.9791 60.1937 48.2777C60.2844 48.5711 60.4231 48.8111 60.6097 48.9977C60.7964 49.1844 61.0311 49.2777 61.3137 49.2777Z" fill="black"/>
</svg>
