<svg width="50" height="86" viewBox="0 0 50 86" fill="none" xmlns="http://www.w3.org/2000/svg">
<path d="M14.2256 30.3484H10.9546C9.87758 30.3484 9 29.4688 9 28.3892V1.95926C9 0.879668 9.87758 0 10.9546 0H14.2256C15.3026 0 16.1802 0.879668 16.1802 1.95926V28.3892C16.1802 29.4688 15.3026 30.3484 14.2256 30.3484Z" fill="#B6CD17"/>
<path d="M27.4287 8.27685H24.1577C23.0807 8.27685 22.2031 7.39718 22.2031 6.3176V1.95926C22.2031 0.879669 23.0807 0 24.1577 0H27.4287C28.5057 0 29.3833 0.879669 29.3833 1.95926V6.3176C29.3833 7.39718 28.5456 8.27685 27.4287 8.27685Z" fill="#4ABDD2"/>
<path d="M27.4287 47.5425H24.1577C23.0807 47.5425 22.2031 46.6628 22.2031 45.5832V13.5554C22.2031 12.4759 23.0807 11.5962 24.1577 11.5962H27.4287C28.5057 11.5962 29.3833 12.4759 29.3833 13.5554V45.5832C29.3833 46.6628 28.5456 47.5425 27.4287 47.5425Z" fill="#4ABDD2"/>
<path d="M14.2256 44.9847H10.9546C9.87758 44.9847 9 44.105 9 43.0254V38.1873C9 37.1077 9.87758 36.228 10.9546 36.228H14.2256C15.3026 36.228 16.1802 37.1077 16.1802 38.1873V43.0254C16.1802 44.105 15.3026 44.9847 14.2256 44.9847Z" fill="#4ABDD2"/>
<path d="M14.2256 59.1382H10.9546C9.87758 59.1382 9 58.2585 9 57.1789V52.8206C9 51.741 9.87758 50.8613 10.9546 50.8613H14.2256C15.3026 50.8613 16.1802 51.741 16.1802 52.8206V57.1789C16.1802 58.2585 15.3026 59.1382 14.2256 59.1382Z" fill="#B6CD17"/>
<path d="M39.5937 35.3867H36.3228C35.2457 35.3867 34.3682 34.5071 34.3682 33.4275V7.47733C34.3682 6.39774 35.2457 5.51807 36.3228 5.51807H39.5937C40.6708 5.51807 41.5483 6.39774 41.5483 7.47733V33.4275C41.5483 34.5071 40.6708 35.3867 39.5937 35.3867Z" fill="#B6CD17"/>
<path d="M27.4287 65.4976H24.1577C23.0807 65.4976 22.2031 64.6179 22.2031 63.5384V54.5018C22.2031 53.4222 23.0807 52.5425 24.1577 52.5425H27.4287C28.5057 52.5425 29.3833 53.4222 29.3833 54.5018V63.5384C29.3833 64.6179 28.5456 65.4976 27.4287 65.4976Z" fill="#B6CD17"/>
<path d="M39.5937 55.8215H36.3228C35.2457 55.8215 34.3682 54.9418 34.3682 53.8622V40.6272C34.3682 39.5476 35.2457 38.668 36.3228 38.668H39.5937C40.6708 38.668 41.5483 39.5476 41.5483 40.6272V53.8622C41.5483 54.9418 40.6708 55.8215 39.5937 55.8215Z" fill="#B6CD17"/>
</svg>
