<svg width="42" height="42" viewBox="0 0 42 42" fill="none" xmlns="http://www.w3.org/2000/svg">
<rect width="42" height="42" rx="21" fill="#F5F5F5"/>
<path d="M29.71 28.29L26.31 24.9C27.407 23.5025 28.0022 21.7767 28 20C28 18.4178 27.5308 16.871 26.6518 15.5554C25.7727 14.2398 24.5233 13.2145 23.0615 12.609C21.5997 12.0035 19.9911 11.845 18.4393 12.1537C16.8874 12.4624 15.462 13.2243 14.3431 14.3431C13.2243 15.462 12.4624 16.8874 12.1537 18.4393C11.845 19.9911 12.0035 21.5997 12.609 23.0615C13.2145 24.5233 14.2398 25.7727 15.5554 26.6518C16.871 27.5308 18.4178 28 20 28C21.7767 28.0022 23.5025 27.407 24.9 26.31L28.29 29.71C28.383 29.8037 28.4936 29.8781 28.6154 29.9289C28.7373 29.9797 28.868 30.0058 29 30.0058C29.132 30.0058 29.2627 29.9797 29.3846 29.9289C29.5064 29.8781 29.617 29.8037 29.71 29.71C29.8037 29.617 29.8781 29.5064 29.9289 29.3846C29.9797 29.2627 30.0058 29.132 30.0058 29C30.0058 28.868 29.9797 28.7373 29.9289 28.6154C29.8781 28.4936 29.8037 28.383 29.71 28.29ZM14 20C14 18.8133 14.3519 17.6533 15.0112 16.6666C15.6705 15.6799 16.6075 14.9109 17.7039 14.4567C18.8003 14.0026 20.0067 13.8838 21.1705 14.1153C22.3344 14.3468 23.4035 14.9182 24.2426 15.7574C25.0818 16.5965 25.6532 17.6656 25.8847 18.8295C26.1162 19.9933 25.9974 21.1997 25.5433 22.2961C25.0892 23.3925 24.3201 24.3295 23.3334 24.9888C22.3467 25.6481 21.1867 26 20 26C18.4087 26 16.8826 25.3679 15.7574 24.2426C14.6321 23.1174 14 21.5913 14 20Z" fill="#696A7B"/>
</svg>
