<svg width="100" height="57" viewBox="0 0 100 57" fill="none" xmlns="http://www.w3.org/2000/svg">
<path d="M5.88568 25.7723C3.97164 25.7723 2.51218 25.2278 1.50731 24.1389C0.502437 23.0257 0 21.4406 0 19.3837V0H3.94771V19.6741C3.94771 20.5453 4.11519 21.1744 4.45015 21.5616C4.80903 21.9488 5.31147 22.1424 5.95746 22.1424C6.60345 22.1424 7.09392 21.9488 7.42888 21.5616C7.78777 21.1744 7.96721 20.5453 7.96721 19.6741V0H11.7714V19.3837C11.7714 21.4406 11.2689 23.0257 10.2641 24.1389C9.25919 25.2278 7.79973 25.7723 5.88568 25.7723Z" fill="#615FC9"/>
<path d="M14.583 0H18.5307V21.7794H25.0265V25.4093H14.583V0Z" fill="#615FC9"/>
<path d="M27.2022 3.6299H23.0751V0H35.2771V3.6299H31.1499V25.4093H27.2022V3.6299Z" fill="#615FC9"/>
<path d="M37.1884 0H41.1361V25.4093H37.1884V0Z" fill="#615FC9"/>
<path d="M44.0927 0H49.7272L52.2394 18.1858H52.3111L54.8233 0H60.4578V25.4093H56.7254V6.17084H56.6536L53.7826 25.4093H50.4808L47.6098 6.17084H47.538V25.4093H44.0927V0Z" fill="#615FC9"/>
<path d="M66.4542 0H71.8016L75.8929 25.4093H71.9451L71.2274 20.3638V20.4364H66.7413L66.0236 25.4093H62.363L66.4542 0ZM70.7608 16.9879L69.0023 4.42848H68.9305L67.2079 16.9879H70.7608Z" fill="#615FC9"/>
<path d="M79.2473 3.6299H75.1201V0H87.3222V3.6299H83.195V25.4093H79.2473V3.6299Z" fill="#615FC9"/>
<path d="M89.2335 0H100V3.6299H93.1812V10.3452H98.6003V13.9751H93.1812V21.7794H100V25.4093H89.2335V0Z" fill="#615FC9"/>
<path d="M0 30.2302H5.81391C7.7758 30.2302 9.24722 30.7626 10.2282 31.8273C11.2091 32.8921 11.6996 34.453 11.6996 36.5099V39.0145C11.6996 41.0715 11.2091 42.6324 10.2282 43.6971C9.24722 44.7619 7.7758 45.2943 5.81391 45.2943H3.94772V55.6395H0V30.2302ZM5.81391 41.6644C6.4599 41.6644 6.93841 41.4829 7.24944 41.1199C7.5844 40.7569 7.75188 40.1398 7.75188 39.2686V36.2558C7.75188 35.3846 7.5844 34.7676 7.24944 34.4046C6.93841 34.0416 6.4599 33.8601 5.81391 33.8601H3.94772V41.6644H5.81391Z" fill="#00DDEB"/>
<path d="M13.8436 30.2302H17.7914V55.6395H13.8436V30.2302Z" fill="#00DDEB"/>
<path d="M23.7984 30.2302H29.1458L33.2371 55.6395H29.2894L28.5716 50.5939V50.6665H24.0855L23.3678 55.6395H19.7072L23.7984 30.2302ZM28.105 47.2181L26.3465 34.6587H26.2747L24.5521 47.2181H28.105Z" fill="#00DDEB"/>
<path d="M35.1523 30.2302H40.1049L43.945 45.4395H44.0167V30.2302H47.5338V55.6395H43.4784L38.7412 37.0907H38.6694V55.6395H35.1523V30.2302Z" fill="#00DDEB"/>
<path d="M56.1742 56.0025C54.2362 56.0025 52.7528 55.4459 51.724 54.3327C50.6952 53.2196 50.1808 51.6466 50.1808 49.6139V36.2558C50.1808 34.2231 50.6952 32.6501 51.724 31.5369C52.7528 30.4238 54.2362 29.8672 56.1742 29.8672C58.1122 29.8672 59.5955 30.4238 60.6243 31.5369C61.6531 32.6501 62.1675 34.2231 62.1675 36.2558V49.6139C62.1675 51.6466 61.6531 53.2196 60.6243 54.3327C59.5955 55.4459 58.1122 56.0025 56.1742 56.0025ZM56.1742 52.3726C57.5379 52.3726 58.2198 51.5377 58.2198 49.868V36.0017C58.2198 34.332 57.5379 33.4971 56.1742 33.4971C54.8104 33.4971 54.1286 34.332 54.1286 36.0017V49.868C54.1286 51.5377 54.8104 52.3726 56.1742 52.3726Z" fill="#00DDEB"/>
</svg>
